<?xml version="1.0" encoding="UTF-8"?>
<svg id="Layer_1" xmlns="http://www.w3.org/2000/svg" version="1.1" viewBox="0 0 1366 768">
  <!-- Generator: Adobe Illustrator 29.8.2, SVG Export Plug-In . SVG Version: 2.1.1 Build 3)  -->
  <path d="M328.23,317.15v7.13h-128.97v-1.19h-3.57l-.89-206.83h7.13l.59,170.58,28.53-.59.59-170.28h7.13l-.59,170.28,90.94-1.78v7.13l-91.23,1.78v23.77h90.34ZM230.75,317.15v-23.77l-27.93.59v23.18h27.93Z"/>
  <path d="M535.66,251.18c2.97,14.46.84,27.54-6.39,39.23-7.23,11.69-17.68,21.1-31.35,28.23v.3h-.59l-1.49.89c-13.67,6.54-27.99,10.15-42.94,10.85-14.96.69-28.48-2.13-40.56-8.47-7.33-4.16-13.48-8.96-18.42-14.41-4.95-5.45-8.67-11.54-11.14-18.28-2.48-6.73-4.21-13.32-5.2-19.76-.99-6.44-1.59-13.92-1.78-22.44h-.89l-1.78-132.24h7.13l1.78,123.92c.59.59.89,1.39.89,2.38,0,18.03,1.88,32.74,5.65,44.13,3.76,11.4,11.59,20.85,23.48,28.38v-74.59h.59l-2.97-124.81h7.13l3.27,132.84h-.89c-.2,12.68,3.17,22.54,10.1,29.57,6.93,7.03,15.35,10.75,25.26,11.14,8.72.4,16.59-1.83,23.63-6.69,7.03-4.85,11.64-11.84,13.82-20.95l.3-17.83-.3-128.08h7.13l.3,127.19v5.05c.59.59.89,1.39.89,2.38,0,4.16-.4,8.22-1.19,12.18l-.89,49.03c11.29-6.54,19.81-14.81,25.56-24.81,5.74-10,7.33-20.85,4.75-32.54h-.59l1.49-138.78h7.13l-1.49,136.11c.19.2.39.5.59.89ZM419.16,275.25v42.5c10.1,4.56,21.64,6.49,34.62,5.79,12.97-.7,25.31-3.81,37-9.36l.89-36.26c-4.36,5.94-9.86,10.4-16.49,13.37-6.64,2.97-13.52,4.26-20.65,3.86-7.13-.19-13.87-2.03-20.21-5.5-6.34-3.46-11.4-8.27-15.16-14.41Z"/>
  <path d="M732.68,345.38l-106.69-140.86-.59,118.57h-7.13l.59-128.08-29.42-38.63-.59,165.82h-7.13l.89-234.17h7.13v1.49l107.28,137.29-.59-110.55h7.13l.59,119.76,28.53,36.85V114.18h7.13v231.2h-7.13ZM618.86,183.42l.3-44.28h.3l-29.72-38.04-.3,43.39,29.42,38.93ZM626,192.63l71.32,94.2-.3-48.14-70.73-90.94-.3,44.87ZM732.68,333.49v-50.82l-.59.59-27.93-35.36.3,48.14,28.23,37.44Z"/>
  <path d="M913.07,321.9l-6.54,2.38-14.56-41.6-64.79.89-14.26,41.01-6.54-2.38,13.08-38.63-32.99.3-16.05,39.82-6.54-2.38,90.04-226.45-.89-2.08,2.38-1.19.59-1.49,1.78.59,1.78-.89.89,1.78,2.08.89-.89,2.38,93.61,226.15-6.54,2.97-17.53-42.5v.89l-31.8.3,13.67,39.23ZM821.83,276.44l7.73-22.58-31.5.59-8.91,22.29,32.69-.3ZM831.94,246.72l23.48-68.05-12.78-35.96-41.6,104.61,30.91-.59ZM889.29,275.55l-7.73-22.59-44.28.89-7.73,22.29,59.73-.59ZM878.89,245.83l-19.91-56.46-19.32,57.35,39.23-.89ZM858.98,167.67l11.29-33.28-12.48-30.01-11,28.23,12.19,35.07ZM886.32,245.83l30.01-.59-41.9-100.74-11.59,34.18,23.48,67.16ZM897.02,275.55l31.5-.3-9.51-22.88-30.02.59,8.02,22.59Z"/>
  <path d="M1167.75,320.42l-5.94,4.16-61.52-91.23c-.99.4-1.98.7-2.97.89-9.91,1.98-18.62,3.47-26.15,4.46l54.38,81.72-5.95,4.16-56.46-85.29c-3.37.2-6.64.3-9.81.3h-8.02v82.61h-7.13v-82.91c-14.07-.99-25.26-3.07-33.58-6.24v89.45h-7.13l-.3-208.91h4.16c4.36-1.98,12.08-3.07,23.18-3.27,10.7-.39,22.88-.1,36.55.89,13.67,1.19,25.95,2.67,36.85,4.46,11.89,2.18,19.91,4.66,24.07,7.43,1.78,1.19,5.15,4.66,10.1,10.4,6.73,7.93,11.04,16.89,12.93,26.89,1.88,10.01,1.58,19.52-.89,28.53-2.48,9.02-6.94,17.34-13.37,24.96-6.44,7.63-14.22,13.33-23.33,17.09l60.33,89.45ZM1038.48,140.92v-23.77c-4.96,0-9.51.1-13.67.3-10.3.2-17.14,1.09-20.5,2.67v28.23c.39-.39.79-.69,1.19-.89,8.32-3.37,19.32-5.54,32.99-6.54ZM1038.48,148.35c-12.68.79-22.69,2.67-30.02,5.65-1.59.59-2.97.3-4.16-.89v42.2h1.19c9.71,2.78,20.7,4.86,32.99,6.24v-53.19ZM1038.48,208.68c-12.68-1.38-24.07-3.46-34.18-6.24l.3,22.88c7.73,3.57,18.92,5.85,33.58,6.83l.3-23.48ZM1058.39,232.45l-12.78-19.61-.3,19.61h13.08ZM1088.4,202.74l14.86,22.29c11.09-4.16,19.91-11.29,26.45-21.4,6.54-10.1,9.66-21.2,9.36-33.28-.3-12.08-4.41-22.78-12.33-32.09-4.56-5.35-7.33-8.42-8.32-9.21-3.37-2.18-10.7-4.26-21.99-6.24-10.5-1.98-22.49-3.46-35.96-4.46-5.35-.39-10.3-.69-14.86-.89v23.48c2.77-.19,5.45-.19,8.02,0,22.59.79,37.74,5.75,45.47,14.86,3.96,4.75,5.94,11.89,5.94,21.4,0,11.29-5.55,19.81-16.64,25.56ZM1047.09,202.44c12.68.99,23.77-.3,33.28-3.86,11.69-4.16,17.53-11.29,17.53-21.4,0-7.92-1.39-13.47-4.16-16.64-6.54-7.73-20.01-11.89-40.42-12.48-2.58-.2-5.15-.2-7.73,0v54.09l.89-.89.59,1.19ZM1081.86,205.71c-8.72,2.97-18.62,4.36-29.72,4.16l14.56,21.99c8.32-.79,17.93-2.38,28.83-4.75h.59l-14.26-21.4Z"/>
  <path d="M445.17,538.79v7.13l-66.57.6-.3,95.69h-7.13l.3-95.69-30.91.3v90.34h-7.13v-208.02h1.78v-2.08l138.78-.89v7.13l-94.8.59v23.78l93.02,1.78v7.13l-93.02-1.78-.3,44.58,69.54-.59v7.13l-69.54.59-.3,22.88,66.57-.59ZM372.06,457.36v-23.48l-31.5.3v22.59l31.5.59ZM371.76,509.37l.3-44.87-31.5-.59v45.76l31.2-.3ZM371.47,539.38l.3-22.88-31.2.3v22.88l30.91-.3Z"/>
  <path d="M628.23,537.6v7.13l-64.19.3v55.57l87.07.59v7.13l-87.07-.59v24.67l88.86.3v7.13l-130.16-.6v-.59h-3.57l1.49-209.8h.3v-1.78l133.73.3v7.13l-90.34-.3v22.88h93.02v7.13h-93.02v42.5l63.3.59v7.13l-63.3-.59-.3,24.07,64.19-.3ZM556.9,632.4v-24.67l-30.31-.3-.3,24.67,30.61.3ZM556.9,545.03h-30.01l-.3,55.27,30.31.3v-55.57ZM556.9,537.9l.3-24.07-30.01-.3-.3,24.37h30.01ZM557.2,506.7v-42.5h-29.72l-.3,42.2,30.01.3ZM557.2,457.07v-22.88h-29.42l-.3,22.88h29.72Z"/>
  <path d="M701.33,620.22c3.76.79,7.68,1.88,11.74,3.27,4.06,1.39,8.47,2.97,13.22,4.76,4.75,1.78,8.42,3.07,11,3.86,13.27,4.36,24.86,5.05,34.77,2.08,16.44-4.55,28.78-13.12,37-25.71,8.22-12.58,10.05-26.7,5.5-42.35-.2-.79-.7-2.68-1.49-5.65-.59-2.57-1.09-4.55-1.49-5.94-1.39-4.16-2.97-7.13-4.75-8.92-6.74-6.34-20.01-10.89-39.82-13.67l6.54,10.7c9.31,15.65,14.86,27.34,16.64,35.07s.89,14.46-2.67,20.21c-2.97,4.96-7.73,8.72-14.27,11.29-5.75,2.18-12.14,3.32-19.17,3.42-7.04.1-13.33-.84-18.87-2.82-5.75-1.78-13.48-6.63-23.18-14.56-1.78-1.38-1.93-3.02-.45-4.9,1.49-1.88,3.22-2.03,5.2-.45,8.92,7.33,15.85,11.79,20.8,13.37,4.75,1.59,10.25,2.33,16.49,2.23,6.24-.1,11.74-1.04,16.49-2.82,5.15-1.98,8.81-4.85,11-8.62,2.38-3.96,2.87-8.81,1.48-14.56-1.59-7.13-6.83-18.23-15.75-33.29l-9.51-15.45-5.05-.59c-15.06-1.78-25.07-3.27-30.02-4.46-10.3-2.77-17.14-6.84-20.5-12.19-10.7-16.84-13.67-32.49-8.92-46.95,4.16-12.88,13.57-23.28,28.23-31.2,12.88-7.13,28.23-10.7,46.06-10.7s33.29,4.26,46.36,12.78c2.18,1.19,2.62,2.82,1.34,4.9-1.29,2.08-2.93,2.43-4.9,1.04-12.09-7.73-26.35-11.59-42.79-11.59s-30.71,3.37-42.79,10.1c-13.08,6.94-21.4,15.95-24.96,27.04-3.97,12.48-1.19,26.15,8.32,41.01,2.38,3.77,7.82,6.64,16.34,8.62,5.54,1.39,15.05,2.88,28.53,4.46-2.78-4.55-4.86-8.12-6.24-10.7-.79-1.19-3.47-4.65-8.02-10.4-4.16-5.35-6.64-9.9-7.43-13.67-1.78-9.31.19-17.13,5.94-23.48,5.15-5.54,12.28-9.21,21.4-10.99,8.52-1.58,17.04-1.04,25.56,1.63,8.52,2.68,14.86,7.38,19.02,14.12,1.38,1.98,1.04,3.62-1.04,4.9-2.08,1.29-3.71.85-4.9-1.34-3.17-4.95-8.32-8.57-15.45-10.85-7.13-2.28-14.46-2.72-21.99-1.34-7.53,1.39-13.28,4.26-17.24,8.62-4.16,4.56-5.55,10.4-4.16,17.53.59,2.78,2.47,6.24,5.65,10.4,4.95,6.14,7.82,9.91,8.62,11.29l9.21,15.45c24.96,2.97,41.5,8.32,49.63,16.05,2.77,2.78,5.05,6.84,6.84,12.19.39,1.59.99,3.67,1.78,6.24.59,2.97,1.09,4.86,1.48,5.65,4.95,17.63,2.72,33.53-6.69,47.7-9.41,14.17-23.13,23.92-41.16,29.27-11.29,3.17-24.27,2.38-38.93-2.38l-11-4.16c-4.75-1.78-9.06-3.31-12.93-4.61-3.86-1.29-7.48-2.23-10.85-2.82-2.38-.59-3.32-2.03-2.82-4.31.49-2.28,1.83-3.22,4.01-2.82Z"/>
  <path d="M852.29,468.36v-7.13l65.38-.3v-25.56h-65.68v-7.13l175.63-.3v7.13h-66.87v25.56l68.35-.3v7.13l-68.35.3.3,169.98h-7.13l-.3-169.98-28.83.3v169.09h-7.13v-169.09l-65.38.3ZM953.63,460.63v-25.56l-28.83.3v25.56l28.83-.3Z"/>
</svg>